<?xml version="1.0" standalone="no"?>
<!DOCTYPE svg PUBLIC "-//W3C//DTD SVG 20010904//EN"
 "http://www.w3.org/TR/2001/REC-SVG-20010904/DTD/svg10.dtd">
<svg version="1.0" xmlns="http://www.w3.org/2000/svg"
 width="2678.000000pt" height="2394.000000pt" viewBox="0 0 2678.000000 2394.000000"
 preserveAspectRatio="xMidYMid meet">

<g transform="translate(0.000000,2394.000000) scale(0.100000,-0.100000)"
fill="#000000" stroke="none">
<path d="M15170 21814 l1 -2109 165 -193 c151 -175 165 -195 152 -210 -8 -9
-83 -97 -166 -195 l-152 -179 1 -816 0 -817 663 -768 c365 -422 666 -770 669
-774 9 -8 72 41 116 90 20 22 41 45 46 51 6 6 339 391 740 856 765 885 1494
1727 1875 2163 124 142 236 277 250 299 30 52 33 127 6 181 -10 21 -62 88
-115 150 -1432 1664 -3521 4067 -3631 4178 -84 84 -152 126 -267 166 -65 22
-101 27 -215 31 l-138 5 0 -2109z"/>
<path d="M15170 11013 c0 -2160 4 -3923 8 -3917 5 5 342 396 749 869 407 473
1164 1352 1682 1952 517 601 941 1095 941 1098 0 3 -433 508 -962 1122 -530
614 -1235 1432 -1567 1817 -332 386 -660 765 -727 844 l-124 143 0 -3928z"/>
<path d="M7850 1500 c0 -20 7 -20 673 -20 369 0 1020 3 1445 7 634 5 772 9
772 20 0 11 -246 13 -1445 13 -1438 0 -1445 0 -1445 -20z"/>
<path d="M14030 1507 c0 -11 292 -15 1697 -20 933 -4 2004 -7 2380 -7 676 0
683 0 683 20 0 20 -7 20 -2380 20 -1978 0 -2380 -2 -2380 -13z"/>
</g>
</svg>
