<?xml version="1.0" encoding="utf-8"?>
<!-- Generator: Adobe Illustrator 25.2.3, SVG Export Plug-In . SVG Version: 6.00 Build 0)  -->
<svg version="1.1" id="Layer_1" xmlns="http://www.w3.org/2000/svg" xmlns:xlink="http://www.w3.org/1999/xlink" x="0px" y="0px"
	 viewBox="0 0 1080 1080" style="enable-background:new 0 0 1080 1080;" xml:space="preserve">
<style type="text/css">
	.st0{display:none;fill:#071F2F;}
	.st1{fill:#FFFFFF;}
	.st2{fill:url(#SVGID_1_);}
	.st3{fill:url(#SVGID_2_);}
	.st4{fill:url(#SVGID_3_);}
	.st5{fill:none;stroke:url(#SVGID_4_);stroke-miterlimit:10;}
</style>
<rect class="st0" width="1080" height="1080"/>
<g>
	<g>
		<path class="st1" d="M592.08,603.46v17.37h-1.76v-13.87l-6.19,13.87h-1.28l-6.19-13.82v13.82h-1.76v-17.37h1.86l6.72,15.06
			l6.72-15.06H592.08z"/>
		<path class="st1" d="M622.95,603.24v11.08c0,1.75,0.42,3.04,1.25,3.88c0.83,0.84,1.97,1.26,3.41,1.26s2.57-0.42,3.39-1.25
			c0.81-0.83,1.22-2.13,1.22-3.89v-11.08h1.76v11.05c0,2.23-0.59,3.91-1.78,5.04c-1.18,1.12-2.72,1.69-4.62,1.69
			s-3.44-0.56-4.62-1.69c-1.18-1.12-1.78-2.8-1.78-5.04v-11.05H622.95z"/>
		<path class="st1" d="M676.36,620.84h-1.76l-9.75-14.81v14.81h-1.76v-17.6h1.76l9.75,14.78v-14.78h1.76V620.84z"/>
		<path class="st1" d="M707.31,603.24v17.6h-1.76v-17.6H707.31z"/>
		<path class="st1" d="M745.86,620.84l-4.36-7.35h-3.25v7.35h-1.76v-17.6h5.29c1.96,0,3.45,0.47,4.47,1.41s1.52,2.17,1.52,3.7
			c0,1.28-0.36,2.36-1.1,3.26c-0.73,0.9-1.81,1.48-3.24,1.75l4.53,7.48H745.86z M738.26,612.05h3.55c1.38,0,2.41-0.34,3.11-1.01
			c0.7-0.67,1.04-1.57,1.04-2.69c0-1.16-0.34-2.05-1.01-2.68c-0.67-0.63-1.73-0.94-3.17-0.94h-3.53V612.05z"/>
	</g>
</g>
<g>
	<linearGradient id="SVGID_1_" gradientUnits="userSpaceOnUse" x1="293.7684" y1="556.915" x2="420.2939" y2="556.915">
		<stop  offset="2.024560e-07" style="stop-color:#5AC8E2"/>
		<stop  offset="1" style="stop-color:#1C75BC"/>
	</linearGradient>
	<path class="st2" d="M304.18,593.34c7.15-8.28,14.05-16.26,21.2-24.54c10.42,12.1,20.73,24.06,31.32,36.35
		c3.7-4.32,7.23-8.44,10.9-12.73c-24.66-28.6-49.13-57-73.83-85.65c5.06-5.86,9.97-11.55,14.89-17.24
		c7.97-9.23,15.97-18.43,23.86-27.72c1.4-1.65,2.82-2.3,4.98-2.28c13.19,0.09,26.39-0.02,39.58,0.14c1.56,0.02,3.57,0.93,4.6,2.11
		c12.58,14.35,25.01,28.84,37.51,43.26c1.11,1.28,1.68,2.2,0.29,3.79c-9.94,11.37-19.78,22.83-29.67,34.25
		c-0.2,0.24-0.5,0.39-0.91,0.71c-6.98-8.09-13.94-16.17-21-24.35c3.56-4.17,7.04-8.24,10.62-12.43
		c-7.13-8.28-14.08-16.35-21.31-24.75c-7.09,8.23-13.96,16.21-21.06,24.45c24.6,28.56,49.07,56.96,73.82,85.71
		c-17.7,20.55-35.39,41.09-53.29,61.89C339.1,633.89,321.74,613.73,304.18,593.34z"/>
	<linearGradient id="SVGID_2_" gradientUnits="userSpaceOnUse" x1="219.1841" y1="556.4902" x2="314.8843" y2="556.4902">
		<stop  offset="0" style="stop-color:#959494"/>
		<stop  offset="0.302" style="stop-color:#BAB9B9"/>
		<stop  offset="0.6106" style="stop-color:#E2E2E2"/>
		<stop  offset="0.6847" style="stop-color:#DCDCDC"/>
		<stop  offset="0.7834" style="stop-color:#CCCBCB"/>
		<stop  offset="0.8955" style="stop-color:#B3B2B2"/>
		<stop  offset="1" style="stop-color:#989898"/>
	</linearGradient>
	<path class="st3" d="M282.81,568.7c-6.52,7.56-12.83,14.75-18.98,22.08c-1.59,1.89-3.21,2.76-5.76,2.74
		c-11.56-0.13-23.13-0.06-34.69-0.06c-1.06,0-2.11,0-4.2,0c21.51-25.01,42.43-49.33,63.63-73.98c10.7,12.41,21.29,24.69,32.07,37.2
		c-7,8.15-13.91,16.18-21.1,24.53C290.11,577.01,286.59,573.01,282.81,568.7z"/>
	<linearGradient id="SVGID_3_" gradientUnits="userSpaceOnUse" x1="399.2178" y1="555.694" x2="494.4745" y2="555.694">
		<stop  offset="0" style="stop-color:#959494"/>
		<stop  offset="0.302" style="stop-color:#BAB9B9"/>
		<stop  offset="0.6106" style="stop-color:#E2E2E2"/>
		<stop  offset="0.6847" style="stop-color:#DCDCDC"/>
		<stop  offset="0.7834" style="stop-color:#CCCBCB"/>
		<stop  offset="0.8955" style="stop-color:#B3B2B2"/>
		<stop  offset="1" style="stop-color:#989898"/>
	</linearGradient>
	<path class="st4" d="M494.47,592.53c-5.13,0-9.31,0-13.49,0c-8.76,0-17.52,0.08-26.28-0.09c-1.39-0.03-3.15-0.83-4.07-1.87
		c-5.81-6.51-11.43-13.18-17.12-19.8c-0.7-0.81-1.45-1.56-2.46-2.65c-3.57,4.05-7.03,7.97-10.71,12.14
		c-7.06-8.19-13.93-16.15-21.12-24.49c10.54-12.24,21.06-24.44,31.84-36.95C452.15,543.35,472.99,567.57,494.47,592.53z"/>
</g>
<g>
	<path class="st1" d="M495.4,578c-1.36-0.62-2.44-1.49-3.22-2.61c-0.78-1.12-1.2-2.36-1.25-3.74h2.89c0.13,1.33,0.71,2.49,1.75,3.49
		c1.04,1,2.56,1.5,4.56,1.5c1.85,0,3.31-0.47,4.39-1.42c1.08-0.95,1.62-2.15,1.62-3.61c0-1.17-0.3-2.11-0.9-2.83
		c-0.6-0.71-1.34-1.25-2.22-1.6c-0.88-0.35-2.11-0.73-3.67-1.15c-1.82-0.49-3.26-0.97-4.33-1.44c-1.07-0.47-1.98-1.2-2.73-2.18
		c-0.75-0.99-1.13-2.33-1.13-4.02c0-1.4,0.36-2.66,1.09-3.76c0.73-1.1,1.75-1.97,3.08-2.59c1.33-0.62,2.85-0.94,4.56-0.94
		c2.52,0,4.56,0.62,6.1,1.85c1.55,1.24,2.44,2.83,2.67,4.78h-2.96c-0.18-1.12-0.79-2.11-1.83-2.98c-1.04-0.87-2.44-1.31-4.21-1.31
		c-1.64,0-3,0.44-4.09,1.31c-1.09,0.87-1.64,2.06-1.64,3.57c0,1.14,0.3,2.07,0.9,2.77c0.6,0.7,1.34,1.24,2.24,1.6
		c0.9,0.36,2.11,0.75,3.65,1.17c1.77,0.49,3.2,0.98,4.29,1.46c1.09,0.48,2.01,1.22,2.77,2.2c0.75,0.99,1.13,2.31,1.13,3.98
		c0,1.27-0.34,2.48-1.01,3.63c-0.68,1.14-1.68,2.07-3,2.77c-1.33,0.7-2.91,1.05-4.76,1.05C498.34,578.94,496.76,578.63,495.4,578z"
		/>
	<path class="st1" d="M573.4,551.41v27.25h-2.73v-12.75h-14.78v12.75h-2.73v-27.25h2.73v12.24h14.78v-12.24H573.4z"/>
	<path class="st1" d="M634.42,572.2h-12.4l-2.38,6.47h-2.89l9.94-26.9h3.08l9.9,26.9h-2.89L634.42,572.2z M633.6,569.93l-5.38-14.74
		l-5.38,14.74H633.6z"/>
	<path class="st1" d="M703.27,551.41v27.25h-2.73v-12.75h-14.78v12.75h-2.73v-27.25h2.73v12.24h14.78v-12.24H703.27z"/>
	<path class="st1" d="M764.29,572.2h-12.4l-2.38,6.47h-2.89l9.94-26.9h3.08l9.9,26.9h-2.89L764.29,572.2z M763.47,569.93
		l-5.38-14.74l-5.38,14.74H763.47z"/>
	<path class="st1" d="M829.56,566.93c1.07,1.27,1.6,2.76,1.6,4.45c0,1.38-0.34,2.62-1.03,3.72c-0.69,1.11-1.7,1.98-3.02,2.61
		c-1.33,0.64-2.91,0.96-4.76,0.96h-9.44v-27.25h9.16c2.76,0,4.85,0.64,6.3,1.91c1.44,1.27,2.16,2.92,2.16,4.95
		c0,1.69-0.46,3.06-1.36,4.11c-0.91,1.05-2.08,1.79-3.51,2.2C827.2,564.88,828.5,565.66,829.56,566.93z M815.64,563.46H822
		c1.85,0,3.27-0.44,4.27-1.31c1-0.87,1.5-2.07,1.5-3.61c0-1.51-0.5-2.69-1.5-3.55c-1-0.86-2.46-1.29-4.39-1.29h-6.24V563.46z
		 M826.78,574.96c1.1-0.94,1.66-2.22,1.66-3.86c0-1.64-0.58-2.94-1.74-3.92c-1.16-0.97-2.71-1.46-4.66-1.46h-6.39v10.64h6.51
		C824.13,576.37,825.67,575.9,826.78,574.96z"/>
</g>
<linearGradient id="SVGID_4_" gradientUnits="userSpaceOnUse" x1="550.1797" y1="591.7341" x2="763.4745" y2="591.7341">
	<stop  offset="5.028410e-03" style="stop-color:#071F2F"/>
	<stop  offset="0.3575" style="stop-color:#5AC8E2"/>
	<stop  offset="0.6782" style="stop-color:#1C75BC"/>
	<stop  offset="1" style="stop-color:#122D3C"/>
</linearGradient>
<line class="st5" x1="550.18" y1="591.73" x2="763.47" y2="591.73"/>
</svg>
